<svg width="173" height="61" viewBox="0 0 173 61" fill="none" xmlns="http://www.w3.org/2000/svg">
<path d="M7.848 15.16C8.06133 15.16 8.22933 15.2213 8.352 15.344C8.48 15.4613 8.544 15.6187 8.544 15.816V17H0.608V16.344C0.608 16.2107 0.634667 16.072 0.688 15.928C0.746667 15.7787 0.837333 15.6453 0.96 15.528L4.472 12.008C4.76533 11.7093 5.02667 11.424 5.256 11.152C5.49067 10.88 5.68533 10.6107 5.84 10.344C5.99467 10.0773 6.112 9.808 6.192 9.536C6.27733 9.25867 6.32 8.968 6.32 8.664C6.32 8.38667 6.28 8.144 6.2 7.936C6.12 7.72267 6.00533 7.544 5.856 7.4C5.712 7.256 5.536 7.14933 5.328 7.08C5.12533 7.00533 4.896 6.968 4.64 6.968C4.40533 6.968 4.18667 7.00267 3.984 7.072C3.78667 7.136 3.61067 7.22933 3.456 7.352C3.30133 7.46933 3.17067 7.608 3.064 7.768C2.95733 7.928 2.87733 8.104 2.824 8.296C2.73333 8.54133 2.616 8.704 2.472 8.784C2.328 8.864 2.12 8.88267 1.848 8.84L0.808 8.656C0.888 8.10133 1.04267 7.616 1.272 7.2C1.50133 6.77867 1.78667 6.42933 2.128 6.152C2.47467 5.86933 2.86933 5.65867 3.312 5.52C3.76 5.376 4.24 5.304 4.752 5.304C5.28533 5.304 5.77333 5.384 6.216 5.544C6.65867 5.69867 7.03733 5.92 7.352 6.208C7.66667 6.496 7.912 6.84267 8.088 7.248C8.264 7.65333 8.352 8.104 8.352 8.6C8.352 9.02667 8.288 9.42133 8.16 9.784C8.03733 10.1467 7.86933 10.4933 7.656 10.824C7.448 11.1547 7.20267 11.4747 6.92 11.784C6.63733 12.0933 6.34133 12.408 6.032 12.728L3.424 15.392C3.67467 15.3173 3.92267 15.2613 4.168 15.224C4.41867 15.1813 4.656 15.16 4.88 15.16H7.848ZM17.1293 15.16C17.3426 15.16 17.5106 15.2213 17.6333 15.344C17.7613 15.4613 17.8253 15.6187 17.8253 15.816V17H9.88925V16.344C9.88925 16.2107 9.91592 16.072 9.96925 15.928C10.0279 15.7787 10.1186 15.6453 10.2413 15.528L13.7533 12.008C14.0466 11.7093 14.3079 11.424 14.5373 11.152C14.7719 10.88 14.9666 10.6107 15.1213 10.344C15.2759 10.0773 15.3933 9.808 15.4733 9.536C15.5586 9.25867 15.6013 8.968 15.6013 8.664C15.6013 8.38667 15.5613 8.144 15.4813 7.936C15.4013 7.72267 15.2866 7.544 15.1373 7.4C14.9933 7.256 14.8173 7.14933 14.6093 7.08C14.4066 7.00533 14.1773 6.968 13.9213 6.968C13.6866 6.968 13.4679 7.00267 13.2653 7.072C13.0679 7.136 12.8919 7.22933 12.7373 7.352C12.5826 7.46933 12.4519 7.608 12.3453 7.768C12.2386 7.928 12.1586 8.104 12.1053 8.296C12.0146 8.54133 11.8973 8.704 11.7533 8.784C11.6093 8.864 11.4013 8.88267 11.1293 8.84L10.0893 8.656C10.1693 8.10133 10.3239 7.616 10.5533 7.2C10.7826 6.77867 11.0679 6.42933 11.4093 6.152C11.7559 5.86933 12.1506 5.65867 12.5933 5.52C13.0413 5.376 13.5213 5.304 14.0333 5.304C14.5666 5.304 15.0546 5.384 15.4973 5.544C15.9399 5.69867 16.3186 5.92 16.6333 6.208C16.9479 6.496 17.1933 6.84267 17.3693 7.248C17.5453 7.65333 17.6333 8.104 17.6333 8.6C17.6333 9.02667 17.5693 9.42133 17.4413 9.784C17.3186 10.1467 17.1506 10.4933 16.9373 10.824C16.7293 11.1547 16.4839 11.4747 16.2013 11.784C15.9186 12.0933 15.6226 12.408 15.3133 12.728L12.7053 15.392C12.9559 15.3173 13.2039 15.2613 13.4493 15.224C13.6999 15.1813 13.9373 15.16 14.1613 15.16H17.1293ZM27.0611 8.664C27.6691 8.664 28.2211 8.76267 28.7171 8.96C29.2185 9.15733 29.6451 9.43733 29.9971 9.8C30.3545 10.1627 30.6291 10.6053 30.8211 11.128C31.0131 11.6507 31.1091 12.2347 31.1091 12.88C31.1091 13.5307 31.0131 14.1173 30.8211 14.64C30.6291 15.1627 30.3545 15.608 29.9971 15.976C29.6451 16.344 29.2185 16.6267 28.7171 16.824C28.2211 17.0213 27.6691 17.12 27.0611 17.12C26.4478 17.12 25.8905 17.0213 25.3891 16.824C24.8878 16.6267 24.4585 16.344 24.1011 15.976C23.7491 15.608 23.4745 15.1627 23.2771 14.64C23.0851 14.1173 22.9891 13.5307 22.9891 12.88C22.9891 12.2347 23.0851 11.6507 23.2771 11.128C23.4745 10.6053 23.7491 10.1627 24.1011 9.8C24.4585 9.43733 24.8878 9.15733 25.3891 8.96C25.8905 8.76267 26.4478 8.664 27.0611 8.664ZM27.0611 15.6C27.7438 15.6 28.2478 15.3707 28.5731 14.912C28.9038 14.4533 29.0691 13.7813 29.0691 12.896C29.0691 12.0107 28.9038 11.336 28.5731 10.872C28.2478 10.408 27.7438 10.176 27.0611 10.176C26.3678 10.176 25.8531 10.4107 25.5171 10.88C25.1865 11.344 25.0211 12.016 25.0211 12.896C25.0211 13.776 25.1865 14.448 25.5171 14.912C25.8531 15.3707 26.3678 15.6 27.0611 15.6ZM37.5206 9.312C37.6166 9.15733 37.7473 9.032 37.9126 8.936C38.078 8.84 38.254 8.792 38.4406 8.792H39.9926L38.0806 11.84C37.9473 12.0533 37.8113 12.2267 37.6726 12.36C37.534 12.488 37.366 12.5893 37.1686 12.664C37.4353 12.744 37.654 12.864 37.8246 13.024C37.9953 13.1787 38.15 13.376 38.2886 13.616L40.2086 17H38.8406C38.494 17 38.2246 16.9413 38.0326 16.824C37.8406 16.7067 37.678 16.5387 37.5446 16.32L36.3366 14.048C36.23 13.8507 36.0913 13.704 35.9206 13.608C35.7553 13.512 35.5606 13.464 35.3366 13.464H34.5926V17H32.6166V8.792H34.5926V12.176H35.2326C35.4566 12.176 35.6353 12.136 35.7686 12.056C35.9073 11.9707 36.0246 11.8427 36.1206 11.672L37.5206 9.312ZM48.3441 10.256H45.4161V17H43.4401V10.256H40.5201V8.792H48.3441V10.256ZM53.5216 12.488V10.08H52.4496C52.199 10.08 51.991 10.1173 51.8256 10.192C51.6603 10.2613 51.5243 10.3547 51.4176 10.472C51.3163 10.584 51.2443 10.712 51.2016 10.856C51.159 11 51.1376 11.1413 51.1376 11.28C51.1376 11.6587 51.263 11.9547 51.5136 12.168C51.7696 12.3813 52.111 12.488 52.5376 12.488H53.5216ZM55.4016 8.792V17H53.5216V13.704H53.1776C53.0176 13.704 52.8843 13.72 52.7776 13.752C52.6763 13.7787 52.5883 13.8187 52.5136 13.872C52.4443 13.92 52.383 13.9813 52.3296 14.056C52.2816 14.1307 52.231 14.2133 52.1776 14.304L50.8656 16.32C50.8016 16.432 50.7323 16.5307 50.6576 16.616C50.5883 16.7013 50.5056 16.7733 50.4096 16.832C50.319 16.8853 50.2096 16.928 50.0816 16.96C49.959 16.9867 49.8096 17 49.6336 17H48.2656L50.3376 14.104C50.4496 13.9013 50.5803 13.7387 50.7296 13.616C50.879 13.4933 51.055 13.3947 51.2576 13.32C50.8736 13.2507 50.5456 13.144 50.2736 13C50.007 12.8507 49.791 12.68 49.6256 12.488C49.4603 12.2907 49.3403 12.08 49.2656 11.856C49.191 11.632 49.1536 11.4107 49.1536 11.192C49.1536 10.888 49.2123 10.592 49.3296 10.304C49.4523 10.016 49.6443 9.76 49.9056 9.536C50.167 9.312 50.503 9.13333 50.9136 9C51.3243 8.86133 51.8176 8.792 52.3936 8.792H55.4016ZM61.2226 15.68C61.9053 15.68 62.4146 15.4613 62.7506 15.024C63.0866 14.5867 63.2546 13.9467 63.2546 13.104C63.2546 12.2667 63.0893 11.6293 62.7586 11.192C62.4333 10.7547 61.9346 10.536 61.2626 10.536C60.5906 10.536 60.0786 10.744 59.7266 11.16C59.3746 11.5707 59.1986 12.1867 59.1986 13.008C59.1986 13.8773 59.364 14.5413 59.6946 15C60.0306 15.4533 60.54 15.68 61.2226 15.68ZM61.7986 7.304C61.2973 7.336 60.868 7.43467 60.5106 7.6C60.1586 7.76 59.8653 7.97867 59.6306 8.256C59.4013 8.528 59.2253 8.856 59.1026 9.24C58.9853 9.61867 58.916 10.04 58.8946 10.504C59.028 10.296 59.1906 10.1067 59.3826 9.936C59.58 9.76 59.7986 9.61067 60.0386 9.488C60.284 9.36 60.548 9.26133 60.8306 9.192C61.1186 9.12267 61.4253 9.088 61.7506 9.088C62.2946 9.088 62.7853 9.184 63.2226 9.376C63.66 9.568 64.0306 9.84 64.3346 10.192C64.644 10.544 64.8786 10.968 65.0386 11.464C65.204 11.9547 65.2866 12.4987 65.2866 13.096C65.2866 13.7147 65.188 14.272 64.9906 14.768C64.7986 15.264 64.524 15.688 64.1666 16.04C63.8146 16.3867 63.388 16.6533 62.8866 16.84C62.3853 17.0267 61.8306 17.12 61.2226 17.12C60.6306 17.12 60.084 17.024 59.5826 16.832C59.0866 16.64 58.6573 16.328 58.2946 15.896C57.932 15.464 57.6493 14.904 57.4466 14.216C57.244 13.5227 57.1426 12.6773 57.1426 11.68C57.1426 10.8427 57.22 10.064 57.3746 9.344C57.5293 8.624 57.7826 7.99467 58.1346 7.456C58.4866 6.912 58.948 6.47467 59.5186 6.144C60.0893 5.81333 60.7933 5.616 61.6306 5.552L64.5506 5.328L64.6546 6.352C64.676 6.57067 64.644 6.75733 64.5586 6.912C64.4733 7.06133 64.3213 7.14133 64.1026 7.152L61.7986 7.304ZM68.7958 14.872C69.0198 15.144 69.2624 15.336 69.5238 15.448C69.7904 15.56 70.0784 15.616 70.3878 15.616C70.6864 15.616 70.9558 15.56 71.1958 15.448C71.4358 15.336 71.6384 15.1653 71.8038 14.936C71.9744 14.7067 72.1051 14.4187 72.1958 14.072C72.2864 13.72 72.3318 13.3067 72.3318 12.832C72.3318 12.352 72.2918 11.9467 72.2118 11.616C72.1371 11.28 72.0278 11.008 71.8838 10.8C71.7398 10.592 71.5638 10.44 71.3558 10.344C71.1531 10.248 70.9211 10.2 70.6598 10.2C70.2491 10.2 69.8998 10.288 69.6118 10.464C69.3238 10.6347 69.0518 10.8773 68.7958 11.192V14.872ZM68.6918 9.912C69.0278 9.53333 69.4091 9.22667 69.8358 8.992C70.2624 8.75733 70.7638 8.64 71.3398 8.64C71.7878 8.64 72.1958 8.73333 72.5638 8.92C72.9371 9.10667 73.2571 9.37867 73.5238 9.736C73.7958 10.088 74.0038 10.5253 74.1478 11.048C74.2971 11.5653 74.3718 12.16 74.3718 12.832C74.3718 13.4453 74.2891 14.0133 74.1238 14.536C73.9584 15.0587 73.7211 15.512 73.4118 15.896C73.1078 16.28 72.7371 16.5813 72.2998 16.8C71.8678 17.0133 71.3824 17.12 70.8438 17.12C70.3851 17.12 69.9931 17.0507 69.6678 16.912C69.3424 16.768 69.0518 16.5707 68.7958 16.32V19.68H66.8198V8.792H68.0278C68.2838 8.792 68.4518 8.912 68.5318 9.152L68.6918 9.912ZM80.0841 12.488V10.08H79.0121C78.7615 10.08 78.5535 10.1173 78.3881 10.192C78.2228 10.2613 78.0868 10.3547 77.9801 10.472C77.8788 10.584 77.8068 10.712 77.7641 10.856C77.7215 11 77.7001 11.1413 77.7001 11.28C77.7001 11.6587 77.8255 11.9547 78.0761 12.168C78.3321 12.3813 78.6735 12.488 79.1001 12.488H80.0841ZM81.9641 8.792V17H80.0841V13.704H79.7401C79.5801 13.704 79.4468 13.72 79.3401 13.752C79.2388 13.7787 79.1508 13.8187 79.0761 13.872C79.0068 13.92 78.9455 13.9813 78.8921 14.056C78.8441 14.1307 78.7935 14.2133 78.7401 14.304L77.4281 16.32C77.3641 16.432 77.2948 16.5307 77.2201 16.616C77.1508 16.7013 77.0681 16.7733 76.9721 16.832C76.8815 16.8853 76.7721 16.928 76.6441 16.96C76.5215 16.9867 76.3721 17 76.1961 17H74.8281L76.9001 14.104C77.0121 13.9013 77.1428 13.7387 77.2921 13.616C77.4415 13.4933 77.6175 13.3947 77.8201 13.32C77.4361 13.2507 77.1081 13.144 76.8361 13C76.5695 12.8507 76.3535 12.68 76.1881 12.488C76.0228 12.2907 75.9028 12.08 75.8281 11.856C75.7535 11.632 75.7161 11.4107 75.7161 11.192C75.7161 10.888 75.7748 10.592 75.8921 10.304C76.0148 10.016 76.2068 9.76 76.4681 9.536C76.7295 9.312 77.0655 9.13333 77.4761 9C77.8868 8.86133 78.3801 8.792 78.9561 8.792H81.9641ZM94.6918 15.16C94.9051 15.16 95.0731 15.2213 95.1958 15.344C95.3238 15.4613 95.3878 15.6187 95.3878 15.816V17H87.4518V16.344C87.4518 16.2107 87.4784 16.072 87.5318 15.928C87.5904 15.7787 87.6811 15.6453 87.8038 15.528L91.3158 12.008C91.6091 11.7093 91.8704 11.424 92.0998 11.152C92.3344 10.88 92.5291 10.6107 92.6838 10.344C92.8384 10.0773 92.9558 9.808 93.0358 9.536C93.1211 9.25867 93.1638 8.968 93.1638 8.664C93.1638 8.38667 93.1238 8.144 93.0438 7.936C92.9638 7.72267 92.8491 7.544 92.6998 7.4C92.5558 7.256 92.3798 7.14933 92.1718 7.08C91.9691 7.00533 91.7398 6.968 91.4838 6.968C91.2491 6.968 91.0304 7.00267 90.8278 7.072C90.6304 7.136 90.4544 7.22933 90.2998 7.352C90.1451 7.46933 90.0144 7.608 89.9078 7.768C89.8011 7.928 89.7211 8.104 89.6678 8.296C89.5771 8.54133 89.4598 8.704 89.3158 8.784C89.1718 8.864 88.9638 8.88267 88.6918 8.84L87.6518 8.656C87.7318 8.10133 87.8864 7.616 88.1158 7.2C88.3451 6.77867 88.6304 6.42933 88.9718 6.152C89.3184 5.86933 89.7131 5.65867 90.1558 5.52C90.6038 5.376 91.0838 5.304 91.5958 5.304C92.1291 5.304 92.6171 5.384 93.0598 5.544C93.5024 5.69867 93.8811 5.92 94.1958 6.208C94.5104 6.496 94.7558 6.84267 94.9318 7.248C95.1078 7.65333 95.1958 8.104 95.1958 8.6C95.1958 9.02667 95.1318 9.42133 95.0038 9.784C94.8811 10.1467 94.7131 10.4933 94.4998 10.824C94.2918 11.1547 94.0464 11.4747 93.7638 11.784C93.4811 12.0933 93.1851 12.408 92.8758 12.728L90.2678 15.392C90.5184 15.3173 90.7664 15.2613 91.0118 15.224C91.2624 15.1813 91.4998 15.16 91.7238 15.16H94.6918ZM105.005 11.216C105.005 12.224 104.896 13.1013 104.677 13.848C104.464 14.5893 104.165 15.2027 103.781 15.688C103.402 16.1733 102.952 16.536 102.429 16.776C101.912 17.0107 101.352 17.128 100.749 17.128C100.146 17.128 99.5863 17.0107 99.069 16.776C98.557 16.536 98.1117 16.1733 97.733 15.688C97.3543 15.2027 97.0583 14.5893 96.845 13.848C96.6317 13.1013 96.525 12.224 96.525 11.216C96.525 10.2027 96.6317 9.32533 96.845 8.584C97.0583 7.84267 97.3543 7.22933 97.733 6.744C98.1117 6.25867 98.557 5.89867 99.069 5.664C99.5863 5.424 100.146 5.304 100.749 5.304C101.352 5.304 101.912 5.424 102.429 5.664C102.952 5.89867 103.402 6.25867 103.781 6.744C104.165 7.22933 104.464 7.84267 104.677 8.584C104.896 9.32533 105.005 10.2027 105.005 11.216ZM102.965 11.216C102.965 10.3787 102.904 9.68533 102.781 9.136C102.658 8.58667 102.493 8.14933 102.285 7.824C102.082 7.49867 101.848 7.272 101.581 7.144C101.314 7.01067 101.037 6.944 100.749 6.944C100.466 6.944 100.192 7.01067 99.925 7.144C99.6637 7.272 99.4317 7.49867 99.229 7.824C99.0263 8.14933 98.8637 8.58667 98.741 9.136C98.6237 9.68533 98.565 10.3787 98.565 11.216C98.565 12.0533 98.6237 12.7467 98.741 13.296C98.8637 13.8453 99.0263 14.2827 99.229 14.608C99.4317 14.9333 99.6637 15.1627 99.925 15.296C100.192 15.424 100.466 15.488 100.749 15.488C101.037 15.488 101.314 15.424 101.581 15.296C101.848 15.1627 102.082 14.9333 102.285 14.608C102.493 14.2827 102.658 13.8453 102.781 13.296C102.904 12.7467 102.965 12.0533 102.965 11.216ZM113.254 15.16C113.468 15.16 113.636 15.2213 113.758 15.344C113.886 15.4613 113.95 15.6187 113.95 15.816V17H106.014V16.344C106.014 16.2107 106.041 16.072 106.094 15.928C106.153 15.7787 106.244 15.6453 106.366 15.528L109.878 12.008C110.172 11.7093 110.433 11.424 110.662 11.152C110.897 10.88 111.092 10.6107 111.246 10.344C111.401 10.0773 111.518 9.808 111.598 9.536C111.684 9.25867 111.726 8.968 111.726 8.664C111.726 8.38667 111.686 8.144 111.606 7.936C111.526 7.72267 111.412 7.544 111.262 7.4C111.118 7.256 110.942 7.14933 110.734 7.08C110.532 7.00533 110.302 6.968 110.046 6.968C109.812 6.968 109.593 7.00267 109.39 7.072C109.193 7.136 109.017 7.22933 108.862 7.352C108.708 7.46933 108.577 7.608 108.47 7.768C108.364 7.928 108.284 8.104 108.23 8.296C108.14 8.54133 108.022 8.704 107.878 8.784C107.734 8.864 107.526 8.88267 107.254 8.84L106.214 8.656C106.294 8.10133 106.449 7.616 106.678 7.2C106.908 6.77867 107.193 6.42933 107.534 6.152C107.881 5.86933 108.276 5.65867 108.718 5.52C109.166 5.376 109.646 5.304 110.158 5.304C110.692 5.304 111.18 5.384 111.622 5.544C112.065 5.69867 112.444 5.92 112.758 6.208C113.073 6.496 113.318 6.84267 113.494 7.248C113.67 7.65333 113.758 8.104 113.758 8.6C113.758 9.02667 113.694 9.42133 113.566 9.784C113.444 10.1467 113.276 10.4933 113.062 10.824C112.854 11.1547 112.609 11.4747 112.326 11.784C112.044 12.0933 111.748 12.408 111.438 12.728L108.83 15.392C109.081 15.3173 109.329 15.2613 109.574 15.224C109.825 15.1813 110.062 15.16 110.286 15.16H113.254ZM122.968 15.52V17H116.568V15.52H118.911V8.776C118.911 8.50933 118.92 8.23467 118.936 7.952L117.272 9.344C117.176 9.41867 117.08 9.46667 116.984 9.488C116.893 9.504 116.805 9.504 116.72 9.488C116.64 9.472 116.568 9.44533 116.504 9.408C116.44 9.36533 116.392 9.32 116.36 9.272L115.736 8.416L119.264 5.416H120.888V15.52H122.968ZM124.913 18.96C124.817 18.88 124.769 18.7813 124.769 18.664C124.769 18.6213 124.782 18.5733 124.809 18.52C124.841 18.4667 124.878 18.4187 124.921 18.376C124.979 18.312 125.051 18.232 125.137 18.136C125.222 18.0453 125.307 17.9387 125.393 17.816C125.478 17.6987 125.555 17.568 125.625 17.424C125.699 17.2853 125.755 17.136 125.793 16.976C125.622 16.976 125.467 16.9467 125.329 16.888C125.19 16.824 125.07 16.7387 124.969 16.632C124.873 16.5253 124.795 16.4 124.737 16.256C124.683 16.112 124.657 15.9547 124.657 15.784C124.657 15.6347 124.683 15.496 124.737 15.368C124.795 15.2347 124.875 15.12 124.977 15.024C125.078 14.9227 125.201 14.8453 125.345 14.792C125.489 14.7333 125.646 14.704 125.817 14.704C126.019 14.704 126.195 14.7413 126.345 14.816C126.499 14.8853 126.625 14.984 126.721 15.112C126.822 15.2347 126.897 15.3787 126.945 15.544C126.998 15.704 127.025 15.8747 127.025 16.056C127.025 16.312 126.985 16.5813 126.905 16.864C126.83 17.1467 126.718 17.4293 126.569 17.712C126.419 17.9947 126.233 18.2693 126.009 18.536C125.79 18.8027 125.539 19.048 125.257 19.272L124.913 18.96ZM139.889 15.52V17H133.489V15.52H135.833V8.776C135.833 8.50933 135.841 8.23467 135.857 7.952L134.193 9.344C134.097 9.41867 134.001 9.46667 133.905 9.488C133.815 9.504 133.727 9.504 133.641 9.488C133.561 9.472 133.489 9.44533 133.425 9.408C133.361 9.36533 133.313 9.32 133.281 9.272L132.657 8.416L136.185 5.416H137.809V15.52H139.889ZM148.739 15.16C148.952 15.16 149.12 15.2213 149.243 15.344C149.371 15.4613 149.435 15.6187 149.435 15.816V17H141.499V16.344C141.499 16.2107 141.525 16.072 141.579 15.928C141.637 15.7787 141.728 15.6453 141.851 15.528L145.363 12.008C145.656 11.7093 145.917 11.424 146.147 11.152C146.381 10.88 146.576 10.6107 146.731 10.344C146.885 10.0773 147.003 9.808 147.083 9.536C147.168 9.25867 147.211 8.968 147.211 8.664C147.211 8.38667 147.171 8.144 147.091 7.936C147.011 7.72267 146.896 7.544 146.747 7.4C146.603 7.256 146.427 7.14933 146.219 7.08C146.016 7.00533 145.787 6.968 145.531 6.968C145.296 6.968 145.077 7.00267 144.875 7.072C144.677 7.136 144.501 7.22933 144.347 7.352C144.192 7.46933 144.061 7.608 143.955 7.768C143.848 7.928 143.768 8.104 143.715 8.296C143.624 8.54133 143.507 8.704 143.363 8.784C143.219 8.864 143.011 8.88267 142.739 8.84L141.699 8.656C141.779 8.10133 141.933 7.616 142.163 7.2C142.392 6.77867 142.677 6.42933 143.019 6.152C143.365 5.86933 143.76 5.65867 144.203 5.52C144.651 5.376 145.131 5.304 145.643 5.304C146.176 5.304 146.664 5.384 147.107 5.544C147.549 5.69867 147.928 5.92 148.243 6.208C148.557 6.496 148.803 6.84267 148.979 7.248C149.155 7.65333 149.243 8.104 149.243 8.6C149.243 9.02667 149.179 9.42133 149.051 9.784C148.928 10.1467 148.76 10.4933 148.547 10.824C148.339 11.1547 148.093 11.4747 147.811 11.784C147.528 12.0933 147.232 12.408 146.923 12.728L144.315 15.392C144.565 15.3173 144.813 15.2613 145.059 15.224C145.309 15.1813 145.547 15.16 145.771 15.16H148.739ZM151.02 15.912C151.02 15.7467 151.049 15.5893 151.108 15.44C151.172 15.2907 151.257 15.1627 151.364 15.056C151.471 14.9493 151.599 14.864 151.748 14.8C151.897 14.736 152.057 14.704 152.228 14.704C152.399 14.704 152.556 14.736 152.7 14.8C152.849 14.864 152.977 14.9493 153.084 15.056C153.196 15.1627 153.284 15.2907 153.348 15.44C153.412 15.5893 153.444 15.7467 153.444 15.912C153.444 16.0827 153.412 16.2427 153.348 16.392C153.284 16.536 153.196 16.6613 153.084 16.768C152.977 16.8747 152.849 16.9573 152.7 17.016C152.556 17.08 152.399 17.112 152.228 17.112C152.057 17.112 151.897 17.08 151.748 17.016C151.599 16.9573 151.471 16.8747 151.364 16.768C151.257 16.6613 151.172 16.536 151.108 16.392C151.049 16.2427 151.02 16.0827 151.02 15.912ZM151.02 10.208C151.02 10.0427 151.049 9.88533 151.108 9.736C151.172 9.58667 151.257 9.45867 151.364 9.352C151.471 9.24533 151.599 9.16 151.748 9.096C151.897 9.032 152.057 9 152.228 9C152.399 9 152.556 9.032 152.7 9.096C152.849 9.16 152.977 9.24533 153.084 9.352C153.196 9.45867 153.284 9.58667 153.348 9.736C153.412 9.88533 153.444 10.0427 153.444 10.208C153.444 10.3787 153.412 10.5387 153.348 10.688C153.284 10.832 153.196 10.9573 153.084 11.064C152.977 11.1707 152.849 11.256 152.7 11.32C152.556 11.3787 152.399 11.408 152.228 11.408C152.057 11.408 151.897 11.3787 151.748 11.32C151.599 11.256 151.471 11.1707 151.364 11.064C151.257 10.9573 151.172 10.832 151.108 10.688C151.049 10.5387 151.02 10.3787 151.02 10.208ZM159.993 12.64V8.856C159.993 8.49867 160.017 8.104 160.065 7.672L156.473 12.64H159.993ZM163.169 12.64V13.784C163.169 13.8907 163.134 13.984 163.065 14.064C162.996 14.1387 162.897 14.176 162.769 14.176H161.713V17H159.993V14.176H155.113C154.98 14.176 154.862 14.136 154.761 14.056C154.66 13.9707 154.596 13.8667 154.569 13.744L154.361 12.744L159.841 5.424H161.713V12.64H163.169ZM166.826 9.632C167.082 9.57867 167.327 9.54133 167.562 9.52C167.797 9.49333 168.023 9.48 168.242 9.48C168.85 9.48 169.386 9.57067 169.85 9.752C170.314 9.93333 170.703 10.184 171.018 10.504C171.333 10.824 171.57 11.2 171.73 11.632C171.89 12.0587 171.97 12.52 171.97 13.016C171.97 13.6293 171.861 14.1893 171.642 14.696C171.429 15.2027 171.13 15.6373 170.746 16C170.362 16.3573 169.906 16.6347 169.378 16.832C168.855 17.0293 168.285 17.128 167.666 17.128C167.303 17.128 166.959 17.0907 166.634 17.016C166.309 16.9413 166.002 16.8427 165.714 16.72C165.431 16.592 165.167 16.448 164.922 16.288C164.682 16.1227 164.466 15.9493 164.274 15.768L164.882 14.928C165.01 14.7467 165.178 14.656 165.386 14.656C165.519 14.656 165.655 14.6987 165.794 14.784C165.933 14.8693 166.09 14.9627 166.266 15.064C166.447 15.1653 166.658 15.2587 166.898 15.344C167.143 15.4293 167.437 15.472 167.778 15.472C168.141 15.472 168.461 15.4133 168.738 15.296C169.015 15.1787 169.245 15.016 169.426 14.808C169.613 14.5947 169.751 14.344 169.842 14.056C169.938 13.7627 169.986 13.4453 169.986 13.104C169.986 12.4747 169.802 11.984 169.434 11.632C169.071 11.2747 168.533 11.096 167.818 11.096C167.269 11.096 166.706 11.1973 166.13 11.4L164.898 11.048L165.858 5.432H171.57V6.272C171.57 6.55467 171.482 6.784 171.306 6.96C171.13 7.136 170.831 7.224 170.41 7.224H167.234L166.826 9.632Z" fill="#8F8F8F"/>
<path d="M119 39H103C101.9 39 101.01 39.9 101.01 41L101 59L105 55H119C120.1 55 121 54.1 121 53V41C121 39.9 120.1 39 119 39ZM105 46H117V48H105V46ZM113 51H105V49H113V51ZM117 45H105V43H117V45Z" fill="#8F8F8F"/>
<path d="M140.88 47.216C140.88 48.224 140.771 49.1013 140.552 49.848C140.339 50.5893 140.04 51.2027 139.656 51.688C139.277 52.1733 138.827 52.536 138.304 52.776C137.787 53.0107 137.227 53.128 136.624 53.128C136.021 53.128 135.461 53.0107 134.944 52.776C134.432 52.536 133.987 52.1733 133.608 51.688C133.229 51.2027 132.933 50.5893 132.72 49.848C132.507 49.1013 132.4 48.224 132.4 47.216C132.4 46.2027 132.507 45.3253 132.72 44.584C132.933 43.8427 133.229 43.2293 133.608 42.744C133.987 42.2587 134.432 41.8987 134.944 41.664C135.461 41.424 136.021 41.304 136.624 41.304C137.227 41.304 137.787 41.424 138.304 41.664C138.827 41.8987 139.277 42.2587 139.656 42.744C140.04 43.2293 140.339 43.8427 140.552 44.584C140.771 45.3253 140.88 46.2027 140.88 47.216ZM138.84 47.216C138.84 46.3787 138.779 45.6853 138.656 45.136C138.533 44.5867 138.368 44.1493 138.16 43.824C137.957 43.4987 137.723 43.272 137.456 43.144C137.189 43.0107 136.912 42.944 136.624 42.944C136.341 42.944 136.067 43.0107 135.8 43.144C135.539 43.272 135.307 43.4987 135.104 43.824C134.901 44.1493 134.739 44.5867 134.616 45.136C134.499 45.6853 134.44 46.3787 134.44 47.216C134.44 48.0533 134.499 48.7467 134.616 49.296C134.739 49.8453 134.901 50.2827 135.104 50.608C135.307 50.9333 135.539 51.1627 135.8 51.296C136.067 51.424 136.341 51.488 136.624 51.488C136.912 51.488 137.189 51.424 137.456 51.296C137.723 51.1627 137.957 50.9333 138.16 50.608C138.368 50.2827 138.533 49.8453 138.656 49.296C138.779 48.7467 138.84 48.0533 138.84 47.216Z" fill="#8F8F8F"/>
<path d="M36.28 52.52V54H29.88V52.52H32.224V45.776C32.224 45.5093 32.232 45.2347 32.248 44.952L30.584 46.344C30.488 46.4187 30.392 46.4667 30.296 46.488C30.2053 46.504 30.1173 46.504 30.032 46.488C29.952 46.472 29.88 46.4453 29.816 46.408C29.752 46.3653 29.704 46.32 29.672 46.272L29.048 45.416L32.576 42.416H34.2V52.52H36.28ZM37.9693 52.912C37.9693 52.7467 37.9986 52.5893 38.0573 52.44C38.1213 52.2907 38.2066 52.1627 38.3133 52.056C38.4199 51.9493 38.5479 51.864 38.6973 51.8C38.8466 51.736 39.0066 51.704 39.1773 51.704C39.3479 51.704 39.5053 51.736 39.6493 51.8C39.7986 51.864 39.9266 51.9493 40.0333 52.056C40.1453 52.1627 40.2333 52.2907 40.2973 52.44C40.3613 52.5893 40.3933 52.7467 40.3933 52.912C40.3933 53.0827 40.3613 53.2427 40.2973 53.392C40.2333 53.536 40.1453 53.6613 40.0333 53.768C39.9266 53.8747 39.7986 53.9573 39.6493 54.016C39.5053 54.08 39.3479 54.112 39.1773 54.112C39.0066 54.112 38.8466 54.08 38.6973 54.016C38.5479 53.9573 38.4199 53.8747 38.3133 53.768C38.2066 53.6613 38.1213 53.536 38.0573 53.392C37.9986 53.2427 37.9693 53.0827 37.9693 52.912ZM48.9261 52.16C49.1395 52.16 49.3075 52.2213 49.4301 52.344C49.5581 52.4613 49.6221 52.6187 49.6221 52.816V54H41.6861V53.344C41.6861 53.2107 41.7128 53.072 41.7661 52.928C41.8248 52.7787 41.9155 52.6453 42.0381 52.528L45.5501 49.008C45.8435 48.7093 46.1048 48.424 46.3341 48.152C46.5688 47.88 46.7635 47.6107 46.9181 47.344C47.0728 47.0773 47.1901 46.808 47.2701 46.536C47.3555 46.2587 47.3981 45.968 47.3981 45.664C47.3981 45.3867 47.3581 45.144 47.2781 44.936C47.1981 44.7227 47.0835 44.544 46.9341 44.4C46.7901 44.256 46.6141 44.1493 46.4061 44.08C46.2035 44.0053 45.9741 43.968 45.7181 43.968C45.4835 43.968 45.2648 44.0027 45.0621 44.072C44.8648 44.136 44.6888 44.2293 44.5341 44.352C44.3795 44.4693 44.2488 44.608 44.1421 44.768C44.0355 44.928 43.9555 45.104 43.9021 45.296C43.8115 45.5413 43.6941 45.704 43.5501 45.784C43.4061 45.864 43.1981 45.8827 42.9261 45.84L41.8861 45.656C41.9661 45.1013 42.1208 44.616 42.3501 44.2C42.5795 43.7787 42.8648 43.4293 43.2061 43.152C43.5528 42.8693 43.9475 42.6587 44.3901 42.52C44.8381 42.376 45.3181 42.304 45.8301 42.304C46.3635 42.304 46.8515 42.384 47.2941 42.544C47.7368 42.6987 48.1155 42.92 48.4301 43.208C48.7448 43.496 48.9901 43.8427 49.1661 44.248C49.3421 44.6533 49.4301 45.104 49.4301 45.6C49.4301 46.0267 49.3661 46.4213 49.2381 46.784C49.1155 47.1467 48.9475 47.4933 48.7341 47.824C48.5261 48.1547 48.2808 48.4747 47.9981 48.784C47.7155 49.0933 47.4195 49.408 47.1101 49.728L44.5021 52.392C44.7528 52.3173 45.0008 52.2613 45.2461 52.224C45.4968 52.1813 45.7341 52.16 45.9581 52.16H48.9261ZM53.7994 47.28H54.3034C54.506 47.28 54.674 47.2533 54.8074 47.2C54.9407 47.1413 55.0554 47.0507 55.1514 46.928L58.3434 42.888C58.4767 42.7173 58.6154 42.6 58.7594 42.536C58.9087 42.4667 59.0954 42.432 59.3194 42.432H61.1754L57.2794 47.24C57.05 47.5333 56.8127 47.7413 56.5674 47.864C56.7434 47.928 56.9007 48.0187 57.0394 48.136C57.1834 48.248 57.3194 48.3973 57.4474 48.584L61.4634 54H59.5674C59.3114 54 59.1194 53.9653 58.9914 53.896C58.8687 53.8213 58.7647 53.7147 58.6794 53.576L55.4074 49.304C55.306 49.16 55.1887 49.0587 55.0554 49C54.922 48.9413 54.73 48.912 54.4794 48.912H53.7994V54H51.6474V42.432H53.7994V47.28Z" fill="#8F8F8F"/>
<path d="M21.2565 46.962C21.7305 47.582 21.7305 48.419 21.2565 49.038C19.7635 50.987 16.1815 55 11.9995 55C7.81752 55 4.23552 50.987 2.74252 49.038C2.51191 48.7411 2.38672 48.3759 2.38672 48C2.38672 47.6241 2.51191 47.2589 2.74252 46.962C4.23552 45.013 7.81752 41 11.9995 41C16.1815 41 19.7635 45.013 21.2565 46.962V46.962Z" stroke="#8F8F8F" stroke-width="2" stroke-linecap="round" stroke-linejoin="round"/>
<path d="M12 51C13.6569 51 15 49.6569 15 48C15 46.3431 13.6569 45 12 45C10.3431 45 9 46.3431 9 48C9 49.6569 10.3431 51 12 51Z" stroke="#8F8F8F" stroke-width="2" stroke-linecap="round" stroke-linejoin="round"/>
</svg>
